<svg version="1.1" id="Layer_1" xmlns="http://www.w3.org/2000/svg" xmlns:xlink="http://www.w3.org/1999/xlink" x="0px" y="0px"
	 width="100%" viewBox="0 0 495 107" enable-background="new 0 0 495 107" xml:space="preserve">
<path fill="#FDFDFD" opacity="1.000000" stroke="none" 
	d="
M496.000000,42.000000 
	C496.000000,63.978973 496.000000,85.957947 496.000000,108.000000 
	C365.645782,108.000000 235.291550,108.000000 104.449966,107.650345 
	C95.877525,98.965919 87.683556,90.732674 79.765533,82.242111 
	C76.937737,79.209839 74.920433,78.577980 71.114151,81.124939 
	C59.941765,88.600952 45.265476,87.861908 34.758415,79.949409 
	C24.537985,72.252762 19.217670,57.509804 22.438803,45.810921 
	C27.193239,28.543205 45.055698,18.087492 62.004219,22.651478 
	C79.433640,27.344961 89.304832,44.398838 85.126907,62.086914 
	C84.217598,65.936668 82.854721,66.499748 79.327850,65.154869 
	C74.556709,63.335522 69.557701,62.113777 64.656448,60.635647 
	C72.871048,70.347351 81.599838,79.000511 90.245026,87.736412 
	C92.642662,90.159203 93.723808,88.601730 95.261696,86.701859 
	C114.885841,62.458580 108.926979,20.845797 75.677612,6.141854 
	C71.230217,4.175074 66.564575,2.701805 62.000000,1.000000 
	C206.666672,1.000000 351.333344,1.000000 496.000000,1.000000 
	C496.000000,11.081520 496.000000,21.072102 495.652649,31.407448 
	C493.216278,22.471853 487.313629,16.731276 478.433655,13.973687 
	C465.435028,9.937089 452.149658,12.821765 439.038635,11.893801 
	C439.038635,40.934921 439.038635,69.294411 439.038635,97.660309 
	C443.704407,97.660309 448.084106,97.660309 452.968079,97.660309 
	C452.968079,85.629196 452.968079,73.930191 452.968079,62.017616 
	C456.787445,62.017616 460.097870,61.991596 463.407806,62.022083 
	C478.461548,62.160736 490.655518,57.659367 496.000000,42.000000 
M247.499924,97.767807 
	C259.930328,97.767807 272.360748,97.767807 284.720215,97.767807 
	C284.720215,92.681892 284.720215,88.266708 284.720215,83.409691 
	C270.341553,83.409691 256.258606,83.409691 241.153381,83.409691 
	C255.911789,59.306477 270.191345,35.985321 284.771851,12.172672 
	C262.527222,12.172672 241.133926,12.172672 219.491974,12.172672 
	C219.491974,16.801252 219.491974,21.198341 219.491974,26.073757 
	C232.784912,26.073757 245.825562,26.073757 259.751984,26.073757 
	C244.887177,50.279045 230.477676,73.742897 215.723648,97.767776 
	C226.570770,97.767776 236.535339,97.767776 247.499924,97.767807 
M125.322594,91.178459 
	C136.958862,100.107788 149.653732,100.845711 162.898666,95.669106 
	C171.871704,92.162102 178.350479,85.446259 178.788971,75.887489 
	C179.749817,54.942383 179.438187,33.938816 179.616959,12.958872 
	C179.619141,12.704268 179.233978,12.446363 179.136093,12.323555 
	C174.605148,12.323555 170.190140,12.323555 165.621017,12.323555 
	C165.621017,30.838152 165.784790,49.001472 165.487885,67.157265 
	C165.425781,70.955452 164.509445,75.267021 162.506439,78.393661 
	C158.629730,84.445053 148.176422,86.246025 139.760193,83.271088 
	C132.723740,80.783867 129.762207,76.150040 129.750534,67.437050 
	C129.728195,50.772560 129.744019,34.108017 129.744019,17.443497 
	C129.744019,15.689417 129.744019,13.935336 129.744019,12.328825 
	C124.597427,12.328825 120.185242,12.328825 115.639664,12.328825 
	C115.639664,31.848629 115.671822,51.009174 115.624664,70.169518 
	C115.604317,78.438293 118.710426,85.279572 125.322594,91.178459 
M402.176880,11.973639 
	C392.101196,11.973639 382.025482,11.973639 372.034943,11.973639 
	C372.034943,40.963596 372.034943,69.237343 372.034943,97.664520 
	C376.758240,97.664520 381.289764,97.664520 386.277222,97.664520 
	C386.277222,85.604149 386.277222,73.873444 386.277222,62.026852 
	C390.061554,62.026852 393.428528,62.363930 396.701538,61.953018 
	C402.572754,61.215919 408.682465,60.847988 414.168701,58.871677 
	C428.692657,53.639725 433.698334,34.676193 424.315216,22.481300 
	C418.932129,15.485108 411.243988,13.311748 402.176880,11.973639 
M314.900604,87.771454 
	C322.399261,87.770668 329.919006,88.108284 337.388641,87.642250 
	C341.873199,87.362457 343.996643,88.865623 345.200348,93.022034 
	C345.711731,94.787819 347.317596,97.337952 348.713593,97.539429 
	C352.878387,98.140495 357.185547,97.755241 362.109680,97.755241 
	C350.605682,68.177628 339.421173,39.421421 327.806122,9.558302 
	C316.128815,39.761086 304.999847,68.545662 293.701324,97.768761 
	C298.322479,97.768761 302.181122,98.052696 305.959473,97.625877 
	C307.425171,97.460320 309.013702,95.916557 310.006409,94.595070 
	C311.575531,92.506226 312.689758,90.075645 314.900604,87.771454 
M190.779831,87.472794 
	C190.779831,90.751747 190.779831,94.030701 190.779831,97.457962 
	C195.744644,97.457962 200.150009,97.457962 204.592911,97.457962 
	C204.592911,68.828522 204.592911,40.470070 204.592911,12.265120 
	C199.819504,12.265120 195.399734,12.265120 191.045837,12.265120 
	C190.926636,12.912569 190.816330,13.232621 190.816101,13.552755 
	C190.798447,37.861530 190.789459,62.170307 190.779831,87.472794 
z"/>
<path fill="#2C3FEC" opacity="1.000000" stroke="none" 
	d="
M61.533882,1.000000 
	C66.564575,2.701805 71.230217,4.175074 75.677612,6.141854 
	C108.926979,20.845797 114.885841,62.458580 95.261696,86.701859 
	C93.723808,88.601730 92.642662,90.159203 90.245026,87.736412 
	C81.599838,79.000511 72.871048,70.347351 64.656448,60.635647 
	C69.557701,62.113777 74.556709,63.335522 79.327850,65.154869 
	C82.854721,66.499748 84.217598,65.936668 85.126907,62.086914 
	C89.304832,44.398838 79.433640,27.344961 62.004219,22.651478 
	C45.055698,18.087492 27.193239,28.543205 22.438803,45.810921 
	C19.217670,57.509804 24.537985,72.252762 34.758415,79.949409 
	C45.265476,87.861908 59.941765,88.600952 71.114151,81.124939 
	C74.920433,78.577980 76.937737,79.209839 79.765533,82.242111 
	C87.683556,90.732674 95.877525,98.965919 103.981308,107.650345 
	C104.000000,108.000000 103.500000,108.000000 103.094955,107.677795 
	C96.996727,105.099426 91.256004,102.954063 85.630463,100.540260 
	C82.828476,99.337997 80.576881,99.425949 77.762878,100.918083 
	C54.794022,113.097473 24.888363,105.709717 10.964365,83.840080 
	C6.557189,76.917984 4.261816,68.651329 0.999999,61.000000 
	C1.000000,56.643101 1.000000,52.286201 1.352065,47.307701 
	C4.797451,29.370924 13.478148,15.808111 29.190317,7.527896 
	C34.733997,4.606413 41.041328,3.134012 47.000000,1.000000 
	C51.689255,1.000000 56.378513,1.000000 61.533882,1.000000 
z"/>
<path fill="#353535" opacity="1.000000" stroke="none" 
	d="
M496.000000,41.545891 
	C490.655518,57.659367 478.461548,62.160736 463.407806,62.022083 
	C460.097870,61.991596 456.787445,62.017616 452.968079,62.017616 
	C452.968079,73.930191 452.968079,85.629196 452.968079,97.660309 
	C448.084106,97.660309 443.704407,97.660309 439.038635,97.660309 
	C439.038635,69.294411 439.038635,40.934921 439.038635,11.893801 
	C452.149658,12.821765 465.435028,9.937089 478.433655,13.973687 
	C487.313629,16.731276 493.216278,22.471853 495.652649,31.876104 
	C496.000000,35.030594 496.000000,38.061188 496.000000,41.545891 
M468.037903,47.910564 
	C469.326965,47.628723 470.626434,47.387272 471.903320,47.058201 
	C478.133270,45.452660 481.493622,42.081463 481.662048,37.306816 
	C481.840271,32.254650 478.529755,28.047682 472.058411,26.983896 
	C465.786316,25.952866 459.320923,26.097593 453.003296,25.729601 
	C453.003296,33.636944 453.003296,40.578659 453.003296,47.943123 
	C457.868134,47.943123 462.498199,47.943123 468.037903,47.910564 
z"/>
<path fill="#FCFCFF" opacity="1.000000" stroke="none" 
	d="
M0.999999,61.468658 
	C4.261816,68.651329 6.557189,76.917984 10.964365,83.840080 
	C24.888363,105.709717 54.794022,113.097473 77.762878,100.918083 
	C80.576881,99.425949 82.828476,99.337997 85.630463,100.540260 
	C91.256004,102.954063 96.996727,105.099426 102.844955,107.677795 
	C69.100113,108.000000 35.200222,108.000000 1.000000,108.000000 
	C1.000000,92.647079 1.000000,77.292198 0.999999,61.468658 
z"/>
<path fill="#FDFDFF" opacity="1.000000" stroke="none" 
	d="
M46.531342,1.000000 
	C41.041328,3.134012 34.733997,4.606413 29.190317,7.527896 
	C13.478148,15.808111 4.797451,29.370924 1.352065,46.843048 
	C1.000000,31.739954 1.000000,16.479908 1.000000,1.000000 
	C16.020180,1.000000 31.041431,1.000000 46.531342,1.000000 
z"/>
<path fill="#363636" opacity="1.000000" stroke="none" 
	d="
M246.999908,97.767792 
	C236.535339,97.767776 226.570770,97.767776 215.723648,97.767776 
	C230.477676,73.742897 244.887177,50.279045 259.751984,26.073757 
	C245.825562,26.073757 232.784912,26.073757 219.491974,26.073757 
	C219.491974,21.198341 219.491974,16.801252 219.491974,12.172672 
	C241.133926,12.172672 262.527222,12.172672 284.771851,12.172672 
	C270.191345,35.985321 255.911789,59.306477 241.153381,83.409691 
	C256.258606,83.409691 270.341553,83.409691 284.720215,83.409691 
	C284.720215,88.266708 284.720215,92.681892 284.720215,97.767807 
	C272.360748,97.767807 259.930328,97.767807 246.999908,97.767792 
z"/>
<path fill="#373737" opacity="1.000000" stroke="none" 
	d="
M124.982590,91.053062 
	C118.710426,85.279572 115.604317,78.438293 115.624664,70.169518 
	C115.671822,51.009174 115.639664,31.848629 115.639664,12.328825 
	C120.185242,12.328825 124.597427,12.328825 129.744019,12.328825 
	C129.744019,13.935336 129.744019,15.689417 129.744019,17.443497 
	C129.744019,34.108017 129.728195,50.772560 129.750534,67.437050 
	C129.762207,76.150040 132.723740,80.783867 139.760193,83.271088 
	C148.176422,86.246025 158.629730,84.445053 162.506439,78.393661 
	C164.509445,75.267021 165.425781,70.955452 165.487885,67.157265 
	C165.784790,49.001472 165.621017,30.838152 165.621017,12.323555 
	C170.190140,12.323555 174.605148,12.323555 179.136093,12.323555 
	C179.233978,12.446363 179.619141,12.704268 179.616959,12.958872 
	C179.438187,33.938816 179.749817,54.942383 178.788971,75.887489 
	C178.350479,85.446259 171.871704,92.162102 162.898666,95.669106 
	C149.653732,100.845711 136.958862,100.107788 124.982590,91.053062 
z"/>
<path fill="#343434" opacity="1.000000" stroke="none" 
	d="
M402.636078,11.983790 
	C411.243988,13.311748 418.932129,15.485108 424.315216,22.481300 
	C433.698334,34.676193 428.692657,53.639725 414.168701,58.871677 
	C408.682465,60.847988 402.572754,61.215919 396.701538,61.953018 
	C393.428528,62.363930 390.061554,62.026852 386.277222,62.026852 
	C386.277222,73.873444 386.277222,85.604149 386.277222,97.664520 
	C381.289764,97.664520 376.758240,97.664520 372.034943,97.664520 
	C372.034943,69.237343 372.034943,40.963596 372.034943,11.973639 
	C382.025482,11.973639 392.101196,11.973639 402.636078,11.983790 
M386.105255,26.778545 
	C386.105255,33.700619 386.105255,40.622688 386.105255,48.346577 
	C392.932220,47.864201 399.373688,47.809608 405.675751,46.844513 
	C411.316742,45.980652 414.693420,41.810799 414.755463,37.157211 
	C414.818604,32.422043 411.641571,28.022711 406.071045,27.174452 
	C399.738434,26.210144 393.227539,26.416233 386.105255,26.778545 
z"/>
<path fill="#363636" opacity="1.000000" stroke="none" 
	d="
M314.448547,87.780579 
	C312.689758,90.075645 311.575531,92.506226 310.006409,94.595070 
	C309.013702,95.916557 307.425171,97.460320 305.959473,97.625877 
	C302.181122,98.052696 298.322479,97.768761 293.701324,97.768761 
	C304.999847,68.545662 316.128815,39.761086 327.806122,9.558302 
	C339.421173,39.421421 350.605682,68.177628 362.109680,97.755241 
	C357.185547,97.755241 352.878387,98.140495 348.713593,97.539429 
	C347.317596,97.337952 345.711731,94.787819 345.200348,93.022034 
	C343.996643,88.865623 341.873199,87.362457 337.388641,87.642250 
	C329.919006,88.108284 322.399261,87.770668 314.448547,87.780579 
M330.022217,51.546101 
	C329.385956,49.743324 328.749664,47.940548 327.777466,45.185871 
	C324.091980,55.796455 320.787018,65.311523 317.374481,75.136253 
	C324.644287,75.136253 331.259979,75.136253 338.371307,75.136253 
	C335.525726,67.153763 332.877625,59.725307 330.022217,51.546101 
z"/>
<path fill="#353535" opacity="1.000000" stroke="none" 
	d="
M190.779816,86.975937 
	C190.789459,62.170307 190.798447,37.861530 190.816101,13.552755 
	C190.816330,13.232621 190.926636,12.912569 191.045837,12.265120 
	C195.399734,12.265120 199.819504,12.265120 204.592911,12.265120 
	C204.592911,40.470070 204.592911,68.828522 204.592911,97.457962 
	C200.150009,97.457962 195.744644,97.457962 190.779831,97.457962 
	C190.779831,94.030701 190.779831,90.751747 190.779816,86.975937 
z"/>
<path fill="#FDFDFD" opacity="1.000000" stroke="none" 
	d="
M467.583099,47.926842 
	C462.498199,47.943123 457.868134,47.943123 453.003296,47.943123 
	C453.003296,40.578659 453.003296,33.636944 453.003296,25.729601 
	C459.320923,26.097593 465.786316,25.952866 472.058411,26.983896 
	C478.529755,28.047682 481.840271,32.254650 481.662048,37.306816 
	C481.493622,42.081463 478.133270,45.452660 471.903320,47.058201 
	C470.626434,47.387272 469.326965,47.628723 467.583099,47.926842 
z"/>
<path fill="#FDFDFD" opacity="1.000000" stroke="none" 
	d="
M386.449707,26.446053 
	C393.227539,26.416233 399.738434,26.210144 406.071045,27.174452 
	C411.641571,28.022711 414.818604,32.422043 414.755463,37.157211 
	C414.693420,41.810799 411.316742,45.980652 405.675751,46.844513 
	C399.373688,47.809608 392.932220,47.864201 386.105255,48.346577 
	C386.105255,40.622688 386.105255,33.700619 386.449707,26.446053 
z"/>
<path fill="#F4F4F4" opacity="1.000000" stroke="none" 
	d="
M330.125885,51.921474 
	C332.877625,59.725307 335.525726,67.153763 338.371307,75.136253 
	C331.259979,75.136253 324.644287,75.136253 317.374481,75.136253 
	C320.787018,65.311523 324.091980,55.796455 327.777466,45.185871 
	C328.749664,47.940548 329.385956,49.743324 330.125885,51.921474 
z"/>
</svg>