<svg width="420" height="420" viewBox="0 0 420 420" fill="none" xmlns="http://www.w3.org/2000/svg">
<path d="M403.83 306.832C433.993 251.645 421.845 178.225 368.156 135.457C338.763 112.074 300.185 104.562 271.326 80.149C238.911 52.7072 206.852 19.3893 164.541 8.96992C119.563 -2.11585 70.0225 14.3008 38.7336 48.8302C0.57068 90.8108 4.42254 149.874 21.4892 201.305C64.8077 331.669 235.178 434.651 359.978 353.78C379.237 341.301 393.874 325.066 403.83 306.832Z" fill="#CCE9FF"/>
<path d="M407.445 113.891C407.445 117.465 404.778 120.312 401.46 120.312H397.43V135.335L383.386 120.312H337.282C333.964 120.312 331.297 117.465 331.297 113.891V60.2793C331.297 56.7052 333.964 53.858 337.282 53.858H401.401C404.719 53.858 407.386 56.7657 407.386 60.2793V113.891H407.445Z" fill="#FFBE55"/>
<path d="M303.267 140.242C303.267 143.816 305.933 146.664 309.252 146.664H313.282V161.687L327.326 146.664H373.43C376.748 146.664 379.415 143.816 379.415 140.242V86.6309C379.415 83.0568 376.748 80.2096 373.43 80.2096H309.252C305.933 80.2096 303.267 83.1173 303.267 86.6309V140.242Z" fill="#2A94F4"/>
<path d="M263.03 256.188L270.496 250.615L271.267 249.525L269.904 247.95L268.126 248.434L267.652 243.225L258.882 242.982L254.259 241.65L260.422 254.977L263.03 256.188Z" fill="#FFE3CA"/>
<path d="M278.437 202.153L254.319 240.983C254.319 240.983 256.156 245.89 258.111 242.861C258.348 242.498 256.748 241.71 258.408 240.499C265.045 235.653 276.778 227.111 282.171 220.326C289.282 211.421 289.578 199.488 289.578 199.488L278.437 202.153Z" fill="#FFE3CA"/>
<path d="M267.889 237.228L259.119 231.352L265.815 222.023L274.585 227.838L267.889 237.228Z" fill="white"/>
<path d="M251.83 157.265L276.6 190.401L260.837 227.596C260.837 227.596 271.267 237.53 273.519 235.047C291.949 214.814 298.349 189.129 298.349 189.129L266.645 136.183C266.645 136.183 263.03 127.824 255.8 129.217C241.223 132.004 250.052 153.69 251.83 157.265Z" fill="#0E538C"/>
<path d="M195.771 416.235C195.178 416.962 195.534 418.901 195.534 418.901C195.534 418.901 205.845 420.294 209.223 419.628C210.112 419.446 211.593 418.719 212.956 417.931C213.193 417.81 213.608 417.023 213.845 416.841C214.26 416.599 214.497 417.023 214.852 416.78C215.8 416.235 216.452 415.751 216.452 415.69C217.46 410.904 216.334 408.905 216.334 408.905C216.334 408.905 207.623 405.695 205.904 407.754C201.875 412.601 197.075 414.66 195.771 416.235ZM249.697 410.299L250.704 418.174L258.586 418.598C258.586 418.598 259.06 417.507 259.771 417.568C260.304 417.629 260.956 418.719 261.726 418.78C263.386 418.901 265.223 418.961 265.934 419.022C267.415 419.082 281.697 419.931 281.697 419.931C281.697 419.931 282.171 418.295 281.756 417.689C281.578 417.386 280.275 416.78 279.386 416.478C275.415 415.084 263.978 410.783 262.2 406.785C260.067 401.939 249.697 410.299 249.697 410.299Z" fill="#0B4870"/>
<path d="M233.163 214.329L204.837 213.663C204.837 213.663 200.748 231.291 200.393 246.193C199.859 267.396 199.504 288.356 199.919 301.38C199.445 303.439 199.267 305.56 199.385 307.619C200.274 323.309 204.126 406.604 204.126 406.604C204.126 406.604 216.393 408.058 216.57 406.543C219.474 381.585 222.97 341.301 223.03 325.974C223.089 321.189 223.267 316.403 223.504 311.92C225.459 304.227 233.163 214.329 233.163 214.329Z" fill="#0B4870"/>
<path d="M266.17 409.39L257.222 317.312C257.222 317.251 257.281 317.251 257.281 317.251L253.844 226.202L215.859 223.598C215.859 223.598 218.23 229.171 223.326 253.16C223.326 253.16 229.429 301.743 235.889 326.822C236.007 327.368 236.185 327.792 236.304 328.276C238.2 353.295 248.926 413.873 248.926 413.873L266.17 409.39Z" fill="#0B4870"/>
<path d="M151.563 163.202C151.563 163.202 140.067 153.933 123.652 134.73C118.082 128.248 120.807 135.275 121.756 143.393C122.704 151.51 138.17 167.624 155.119 172.167C172.067 176.71 151.563 163.202 151.563 163.202Z" fill="#FFE3CA"/>
<path d="M124.955 139.818C124.955 139.818 127.563 131.095 126.2 128.914C124.837 126.733 119.326 119.161 119.326 119.161L117.726 117.344C117.726 117.344 114.881 118.071 118.615 123.159C122.348 128.248 119.267 126.794 119.267 126.794L114.23 123.583L107.711 120.13L105.044 118.192C105.044 118.192 103.622 116.98 103.03 116.98C101.37 117.041 102.022 118.374 102.022 118.374L111.918 126.794L100.837 121.645C100.837 121.645 99.2962 121.221 98.8221 121.948C98.3481 122.614 98.8221 122.856 98.8221 122.856L110.081 131.822L104.037 129.823C104.037 129.823 102.555 129.459 102.022 130.126C101.489 130.853 101.311 131.034 101.311 131.034L123.474 141.999L124.955 139.818Z" fill="#FFE3CA"/>
<path d="M124.6 151.389L119.148 144.12L128.334 137.456L133.785 144.726L124.6 151.389Z" fill="white"/>
<path d="M220.304 140.363C220.304 140.363 221.786 147.209 196.304 174.832C182.082 190.28 174.2 197.731 167.149 194.278C152.749 187.251 118.734 154.357 118.734 154.357L132.067 138.849C132.067 138.849 164.304 165.322 169.282 168.108C171.356 169.259 184.215 150.48 197.312 131.458C199.682 127.945 218.586 138.486 220.304 140.363Z" fill="#0E538C"/>
<path d="M199.089 134.185L217.874 123.947L231.978 120.737L239.919 125.038C239.919 125.038 256.452 134.73 258.111 134.73C259.77 134.73 257.578 225.112 257.578 225.112L215.208 226.566L199.8 227.838L199.089 134.185Z" fill="white"/>
<path d="M211.711 253.826L211.356 142.786L217.4 124.492C209.637 125.461 201.815 126.249 196.245 133.215L195.06 243.164L211.711 253.826ZM235.652 123.947L242.052 135.941L240.808 211.239L245.904 254.553L261.904 248.132L264.808 145.997L259.83 129.096L235.652 123.947Z" fill="#0E538C"/>
<path d="M209.104 190.098L202.645 146.361L206.971 143.15L202.289 139.273L206.378 126.612L217.934 122.856L212.778 142.787L210.23 213.42L209.104 190.098Z" fill="#0B4870"/>
<path d="M218.704 132.428C218.704 132.428 212.245 161.202 217.934 214.026C218.289 217.419 222.734 219.297 222.734 219.297L227.06 213.845C227.06 213.845 222.497 168.411 221.963 135.396C221.845 131.277 218.526 136.366 218.704 132.428Z" fill="#FFBE55"/>
<path d="M221.015 129.157L225.874 135.699L235.949 124.492V122.614L221.015 129.157ZM218.171 122.069L214.556 136.184L219.356 130.308L218.171 122.069Z" fill="#F2F2F2"/>
<path d="M237.549 113.467C237.074 115.83 236.186 120.797 235.237 122.917C233.756 126.188 220.66 129.096 218.704 129.581C216.689 130.065 219.178 119.707 219.178 117.344C219.178 115.527 220.363 116.133 218.941 113.528H237.549V113.467Z" fill="#FCD2B1"/>
<path d="M215.267 108.257C214.911 110.256 216.333 112.194 218.408 112.497L235.237 115.163C237.311 115.466 239.267 114.133 239.563 112.073L243.533 87.7209C243.889 85.7218 242.467 83.7833 240.393 83.4804L223.563 80.8756C221.489 80.5727 219.533 81.9054 219.237 83.965L215.267 108.257Z" fill="#FFE3CA"/>
<path d="M218.408 90.0838C218.408 90.0838 216.512 87.3578 216.334 85.8434C216.215 85.0558 217.4 82.451 219.475 81.6635C221.549 80.876 222.734 83.1174 222.734 83.1174C222.734 83.1174 219.475 84.2683 219.238 84.8741C219 85.4799 218.408 90.0838 218.408 90.0838Z" fill="#FFBE55"/>
<path d="M243.474 98.9283C243.474 98.9283 247.563 89.9627 247.563 87.1761C247.563 84.329 247.563 82.3905 244.185 81.5424C239.148 80.2703 238.911 81.3607 236.659 79.4222C234.408 77.5442 230.556 73.1221 229.074 72.5163C226.585 71.4865 222.437 71.7288 221.489 76.3933C220.778 79.8462 218.408 80.3308 218.467 80.5126C218.585 80.9366 219.474 81.5424 220.956 82.5722C225.282 85.6011 228.008 86.5098 231.741 86.1463C235.474 85.7829 242.467 84.8742 242.822 87.6002C243.178 90.3262 241.578 98.2013 241.756 98.8071C241.933 99.4735 242.822 99.2917 243.474 98.9283Z" fill="#FFBE55"/>
<path d="M237.015 105.41C236.896 106.076 237.37 106.743 238.082 106.803L241.696 107.348C242.408 107.47 243.059 106.985 243.119 106.319L244.185 99.8367C244.304 99.1703 243.83 98.504 243.119 98.4434L239.504 97.8982C238.793 97.777 238.141 98.2617 238.082 98.928L237.015 105.41ZM215.326 102.018C215.207 102.684 215.682 103.35 216.393 103.411L220.007 103.956C220.719 104.077 221.37 103.593 221.43 102.926L222.496 96.4443C222.615 95.778 222.141 95.1116 221.43 95.051L217.815 94.5058C217.104 94.3847 216.511 94.8693 216.393 95.5357L215.326 102.018Z" fill="#FFE3CA"/>
<path d="M241.519 100.806C241.519 100.806 239.919 110.377 239.445 113.588C238.97 116.496 236.719 122.614 220.008 120.009C210.111 118.495 211.652 111.407 212.008 109.105C212.304 107.348 215.208 102.32 216.452 101.472C216.511 101.472 215.8 105.41 215.8 105.41C215.8 105.41 218.467 101.896 223.208 102.623C230.793 103.835 231.8 108.439 235.178 108.863C237.785 109.226 240.393 105.41 241.519 100.806Z" fill="#FFBE55"/>
<path d="M225.282 109.408L220.067 108.621C219.356 108.5 218.882 107.894 219 107.228L219.119 106.501L226.823 107.712L226.704 108.439C226.645 109.045 225.993 109.53 225.282 109.408Z" fill="#FFE3CA"/>
<path d="M218.645 129.581L221.015 129.157L222.615 134.669L219.474 136.426L217.045 135.639L218.645 129.581Z" fill="#FFBE55"/>
<path d="M235.534 121.705C235.001 123.341 241.401 136.668 241.401 136.668L240.867 206.636L252.364 147.087L248.749 142.484L252.719 138.607L245.489 124.734L235.534 121.705Z" fill="#0B4870"/>
<path d="M51.4149 50.1024L45.9038 78.4529L40.3927 106.803C40.3927 106.803 71.8594 96.7474 107.652 103.956L110.082 91.4771L112.511 78.8769C76.7779 71.6681 51.4149 50.1024 51.4149 50.1024Z" fill="#F2F2F2"/>
<path d="M102.674 134.972L99.5337 133.458L113.815 102.442L121.815 106.319L109.667 132.609C108.363 135.517 105.519 136.365 102.674 134.972Z" fill="#FFBE55"/>
<mask id="mask0_26_2548" style="mask-type:luminance" maskUnits="userSpaceOnUse" x="99" y="102" width="23" height="34">
<path d="M102.674 134.972L99.5337 133.458L113.815 102.442L121.815 106.319L109.667 132.609C108.363 135.517 105.519 136.365 102.674 134.972Z" fill="white"/>
</mask>
<g mask="url(#mask0_26_2548)">
<path d="M121.46 102.442H121.815V136.365H121.46V102.442ZM121.104 102.442H121.46V136.365H121.104V102.442Z" fill="#FFBE55"/>
</g>
<mask id="mask1_26_2548" style="mask-type:luminance" maskUnits="userSpaceOnUse" x="99" y="102" width="23" height="34">
<path d="M102.674 134.972L99.5337 133.458L113.815 102.442L121.815 106.319L109.667 132.609C108.363 135.517 105.519 136.365 102.674 134.972Z" fill="white"/>
</mask>
<g mask="url(#mask1_26_2548)">
<path d="M120.749 102.442H121.104V136.365H120.749V102.442Z" fill="#FFBE55"/>
</g>
<mask id="mask2_26_2548" style="mask-type:luminance" maskUnits="userSpaceOnUse" x="99" y="102" width="23" height="34">
<path d="M102.674 134.972L99.5337 133.458L113.815 102.442L121.815 106.319L109.667 132.609C108.363 135.517 105.519 136.365 102.674 134.972Z" fill="white"/>
</mask>
<g mask="url(#mask2_26_2548)">
<path d="M120.452 102.442H120.808V136.365H120.452V102.442ZM120.097 102.442H120.452V136.365H120.097V102.442Z" fill="#FFBE55"/>
</g>
<mask id="mask3_26_2548" style="mask-type:luminance" maskUnits="userSpaceOnUse" x="99" y="102" width="23" height="34">
<path d="M102.674 134.972L99.5337 133.458L113.815 102.442L121.815 106.319L109.667 132.609C108.363 135.517 105.519 136.365 102.674 134.972Z" fill="white"/>
</mask>
<g mask="url(#mask3_26_2548)">
<path d="M119.741 102.442H120.097V136.365H119.741V102.442ZM119.386 102.442H119.741V136.365H119.386V102.442ZM119.03 102.442H119.386V136.365H119.03V102.442Z" fill="#FFBE55"/>
</g>
<mask id="mask4_26_2548" style="mask-type:luminance" maskUnits="userSpaceOnUse" x="99" y="102" width="23" height="34">
<path d="M102.674 134.972L99.5337 133.458L113.815 102.442L121.815 106.319L109.667 132.609C108.363 135.517 105.519 136.365 102.674 134.972Z" fill="white"/>
</mask>
<g mask="url(#mask4_26_2548)">
<path d="M118.734 102.442H119.089V136.365H118.734V102.442Z" fill="#FFBE55"/>
</g>
<mask id="mask5_26_2548" style="mask-type:luminance" maskUnits="userSpaceOnUse" x="99" y="102" width="23" height="34">
<path d="M102.674 134.972L99.5337 133.458L113.815 102.442L121.815 106.319L109.667 132.609C108.363 135.517 105.519 136.365 102.674 134.972Z" fill="white"/>
</mask>
<g mask="url(#mask5_26_2548)">
<path d="M118.378 102.442H118.733V136.365H118.378V102.442ZM118.022 102.442H118.378V136.365H118.022V102.442Z" fill="#FFBE55"/>
</g>
<mask id="mask6_26_2548" style="mask-type:luminance" maskUnits="userSpaceOnUse" x="99" y="102" width="23" height="34">
<path d="M102.674 134.972L99.5337 133.458L113.815 102.442L121.815 106.319L109.667 132.609C108.363 135.517 105.519 136.365 102.674 134.972Z" fill="white"/>
</mask>
<g mask="url(#mask6_26_2548)">
<path d="M117.667 102.442H118.023V136.365H117.667V102.442Z" fill="#FFBE55"/>
</g>
<mask id="mask7_26_2548" style="mask-type:luminance" maskUnits="userSpaceOnUse" x="99" y="102" width="23" height="34">
<path d="M102.674 134.972L99.5337 133.458L113.815 102.442L121.815 106.319L109.667 132.609C108.363 135.517 105.519 136.365 102.674 134.972Z" fill="white"/>
</mask>
<g mask="url(#mask7_26_2548)">
<path d="M117.371 102.442H117.726V136.365H117.371V102.442ZM117.015 102.442H117.371V136.365H117.015V102.442ZM116.66 102.442H117.015V136.365H116.66V102.442Z" fill="#FFBE55"/>
</g>
<mask id="mask8_26_2548" style="mask-type:luminance" maskUnits="userSpaceOnUse" x="99" y="102" width="23" height="34">
<path d="M102.674 134.972L99.5337 133.458L113.815 102.442L121.815 106.319L109.667 132.609C108.363 135.517 105.519 136.365 102.674 134.972Z" fill="white"/>
</mask>
<g mask="url(#mask8_26_2548)">
<path d="M116.304 102.442H116.66V136.365H116.304V102.442ZM115.949 102.442H116.304V136.365H115.949V102.442Z" fill="#FFBE55"/>
</g>
<mask id="mask9_26_2548" style="mask-type:luminance" maskUnits="userSpaceOnUse" x="99" y="102" width="23" height="34">
<path d="M102.674 134.972L99.5337 133.458L113.815 102.442L121.815 106.319L109.667 132.609C108.363 135.517 105.519 136.365 102.674 134.972Z" fill="white"/>
</mask>
<g mask="url(#mask9_26_2548)">
<path d="M115.652 102.442H116.007V136.365H115.652V102.442Z" fill="#FFBE55"/>
</g>
<mask id="mask10_26_2548" style="mask-type:luminance" maskUnits="userSpaceOnUse" x="99" y="102" width="23" height="34">
<path d="M102.674 134.972L99.5337 133.458L113.815 102.442L121.815 106.319L109.667 132.609C108.363 135.517 105.519 136.365 102.674 134.972Z" fill="white"/>
</mask>
<g mask="url(#mask10_26_2548)">
<path d="M115.296 102.442H115.652V136.365H115.296V102.442ZM114.941 102.442H115.296V136.365H114.941V102.442ZM114.585 102.442H114.941V136.365H114.585V102.442Z" fill="#FFBE55"/>
</g>
<mask id="mask11_26_2548" style="mask-type:luminance" maskUnits="userSpaceOnUse" x="99" y="102" width="23" height="34">
<path d="M102.674 134.972L99.5337 133.458L113.815 102.442L121.815 106.319L109.667 132.609C108.363 135.517 105.519 136.365 102.674 134.972Z" fill="white"/>
</mask>
<g mask="url(#mask11_26_2548)">
<path d="M114.289 102.442H114.645V136.365H114.289V102.442Z" fill="#FFBE55"/>
</g>
<mask id="mask12_26_2548" style="mask-type:luminance" maskUnits="userSpaceOnUse" x="99" y="102" width="23" height="34">
<path d="M102.674 134.972L99.5337 133.458L113.815 102.442L121.815 106.319L109.667 132.609C108.363 135.517 105.519 136.365 102.674 134.972Z" fill="white"/>
</mask>
<g mask="url(#mask12_26_2548)">
<path d="M113.934 102.442H114.289V136.365H113.934V102.442ZM113.578 102.442H113.934V136.365H113.578V102.442Z" fill="#FFBE55"/>
</g>
<mask id="mask13_26_2548" style="mask-type:luminance" maskUnits="userSpaceOnUse" x="99" y="102" width="23" height="34">
<path d="M102.674 134.972L99.5337 133.458L113.815 102.442L121.815 106.319L109.667 132.609C108.363 135.517 105.519 136.365 102.674 134.972Z" fill="white"/>
</mask>
<g mask="url(#mask13_26_2548)">
<path d="M113.223 102.442H113.578V136.365H113.223V102.442ZM112.867 102.442H113.223V136.365H112.867V102.442Z" fill="#FFBE55"/>
</g>
<mask id="mask14_26_2548" style="mask-type:luminance" maskUnits="userSpaceOnUse" x="99" y="102" width="23" height="34">
<path d="M102.674 134.972L99.5337 133.458L113.815 102.442L121.815 106.319L109.667 132.609C108.363 135.517 105.519 136.365 102.674 134.972Z" fill="white"/>
</mask>
<g mask="url(#mask14_26_2548)">
<path d="M112.571 102.442H112.926V136.365H112.571V102.442ZM112.215 102.442H112.571V136.365H112.215V102.442Z" fill="#FFBE55"/>
</g>
<mask id="mask15_26_2548" style="mask-type:luminance" maskUnits="userSpaceOnUse" x="99" y="102" width="23" height="34">
<path d="M102.674 134.972L99.5337 133.458L113.815 102.442L121.815 106.319L109.667 132.609C108.363 135.517 105.519 136.365 102.674 134.972Z" fill="white"/>
</mask>
<g mask="url(#mask15_26_2548)">
<path d="M111.86 102.442H112.215V136.365H111.86V102.442ZM111.504 102.442H111.86V136.365H111.504V102.442Z" fill="#FFBE55"/>
</g>
<mask id="mask16_26_2548" style="mask-type:luminance" maskUnits="userSpaceOnUse" x="99" y="102" width="23" height="34">
<path d="M102.674 134.972L99.5337 133.458L113.815 102.442L121.815 106.319L109.667 132.609C108.363 135.517 105.519 136.365 102.674 134.972Z" fill="white"/>
</mask>
<g mask="url(#mask16_26_2548)">
<path d="M111.148 102.442H111.504V136.365H111.148V102.442Z" fill="#FFBE55"/>
</g>
<mask id="mask17_26_2548" style="mask-type:luminance" maskUnits="userSpaceOnUse" x="99" y="102" width="23" height="34">
<path d="M102.674 134.972L99.5337 133.458L113.815 102.442L121.815 106.319L109.667 132.609C108.363 135.517 105.519 136.365 102.674 134.972Z" fill="white"/>
</mask>
<g mask="url(#mask17_26_2548)">
<path d="M110.852 102.442H111.208V136.365H110.852V102.442ZM110.497 102.442H110.852V136.365H110.497V102.442ZM110.141 102.442H110.497V136.365H110.141V102.442Z" fill="#FFBE55"/>
</g>
<mask id="mask18_26_2548" style="mask-type:luminance" maskUnits="userSpaceOnUse" x="99" y="102" width="23" height="34">
<path d="M102.674 134.972L99.5337 133.458L113.815 102.442L121.815 106.319L109.667 132.609C108.363 135.517 105.519 136.365 102.674 134.972Z" fill="white"/>
</mask>
<g mask="url(#mask18_26_2548)">
<path d="M109.785 102.442H110.141V136.365H109.785V102.442ZM109.43 102.442H109.785V136.365H109.43V102.442Z" fill="#FFBE55"/>
</g>
<mask id="mask19_26_2548" style="mask-type:luminance" maskUnits="userSpaceOnUse" x="99" y="102" width="23" height="34">
<path d="M102.674 134.972L99.5337 133.458L113.815 102.442L121.815 106.319L109.667 132.609C108.363 135.517 105.519 136.365 102.674 134.972Z" fill="white"/>
</mask>
<g mask="url(#mask19_26_2548)">
<path d="M109.134 102.442H109.489V136.365H109.134V102.442Z" fill="#FFBE55"/>
</g>
<mask id="mask20_26_2548" style="mask-type:luminance" maskUnits="userSpaceOnUse" x="99" y="102" width="23" height="34">
<path d="M102.674 134.972L99.5337 133.458L113.815 102.442L121.815 106.319L109.667 132.609C108.363 135.517 105.519 136.365 102.674 134.972Z" fill="white"/>
</mask>
<g mask="url(#mask20_26_2548)">
<path d="M108.778 102.442H109.134V136.365H108.778V102.442ZM108.423 102.442H108.778V136.365H108.423V102.442ZM108.067 102.442H108.423V136.365H108.067V102.442Z" fill="#FFBE55"/>
</g>
<mask id="mask21_26_2548" style="mask-type:luminance" maskUnits="userSpaceOnUse" x="99" y="102" width="23" height="34">
<path d="M102.674 134.972L99.5337 133.458L113.815 102.442L121.815 106.319L109.667 132.609C108.363 135.517 105.519 136.365 102.674 134.972Z" fill="white"/>
</mask>
<g mask="url(#mask21_26_2548)">
<path d="M107.711 102.442H108.067V136.365H107.711V102.442Z" fill="#FFBE55"/>
</g>
<mask id="mask22_26_2548" style="mask-type:luminance" maskUnits="userSpaceOnUse" x="99" y="102" width="23" height="34">
<path d="M102.674 134.972L99.5337 133.458L113.815 102.442L121.815 106.319L109.667 132.609C108.363 135.517 105.519 136.365 102.674 134.972Z" fill="white"/>
</mask>
<g mask="url(#mask22_26_2548)">
<path d="M107.415 102.442H107.771V136.365H107.415V102.442ZM107.06 102.442H107.415V136.365H107.06V102.442Z" fill="#FFBE55"/>
</g>
<mask id="mask23_26_2548" style="mask-type:luminance" maskUnits="userSpaceOnUse" x="99" y="102" width="23" height="34">
<path d="M102.674 134.972L99.5337 133.458L113.815 102.442L121.815 106.319L109.667 132.609C108.363 135.517 105.519 136.365 102.674 134.972Z" fill="white"/>
</mask>
<g mask="url(#mask23_26_2548)">
<path d="M106.704 102.442H107.06V136.365H106.704V102.442ZM106.349 102.442H106.704V136.365H106.349V102.442Z" fill="#FFBE55"/>
</g>
<mask id="mask24_26_2548" style="mask-type:luminance" maskUnits="userSpaceOnUse" x="99" y="102" width="23" height="34">
<path d="M102.674 134.972L99.5337 133.458L113.815 102.442L121.815 106.319L109.667 132.609C108.363 135.517 105.519 136.365 102.674 134.972Z" fill="white"/>
</mask>
<g mask="url(#mask24_26_2548)">
<path d="M106.052 102.442H106.408V136.365H106.052V102.442ZM105.697 102.442H106.052V136.365H105.697V102.442Z" fill="#FFBE55"/>
</g>
<mask id="mask25_26_2548" style="mask-type:luminance" maskUnits="userSpaceOnUse" x="99" y="102" width="23" height="34">
<path d="M102.674 134.972L99.5337 133.458L113.815 102.442L121.815 106.319L109.667 132.609C108.363 135.517 105.519 136.365 102.674 134.972Z" fill="white"/>
</mask>
<g mask="url(#mask25_26_2548)">
<path d="M105.341 102.442H105.696V136.365H105.341V102.442ZM104.985 102.442H105.341V136.365H104.985V102.442Z" fill="#FFBE55"/>
</g>
<mask id="mask26_26_2548" style="mask-type:luminance" maskUnits="userSpaceOnUse" x="99" y="102" width="23" height="34">
<path d="M102.674 134.972L99.5337 133.458L113.815 102.442L121.815 106.319L109.667 132.609C108.363 135.517 105.519 136.365 102.674 134.972Z" fill="white"/>
</mask>
<g mask="url(#mask26_26_2548)">
<path d="M104.63 102.442H104.986V136.365H104.63V102.442Z" fill="#FFBE55"/>
</g>
<mask id="mask27_26_2548" style="mask-type:luminance" maskUnits="userSpaceOnUse" x="99" y="102" width="23" height="34">
<path d="M102.674 134.972L99.5337 133.458L113.815 102.442L121.815 106.319L109.667 132.609C108.363 135.517 105.519 136.365 102.674 134.972Z" fill="white"/>
</mask>
<g mask="url(#mask27_26_2548)">
<path d="M104.334 102.442H104.689V136.365H104.334V102.442ZM103.978 102.442H104.334V136.365H103.978V102.442ZM103.623 102.442H103.978V136.365H103.623V102.442Z" fill="#FFBE55"/>
</g>
<mask id="mask28_26_2548" style="mask-type:luminance" maskUnits="userSpaceOnUse" x="99" y="102" width="23" height="34">
<path d="M102.674 134.972L99.5337 133.458L113.815 102.442L121.815 106.319L109.667 132.609C108.363 135.517 105.519 136.365 102.674 134.972Z" fill="white"/>
</mask>
<g mask="url(#mask28_26_2548)">
<path d="M103.267 102.442H103.623V136.365H103.267V102.442ZM102.912 102.442H103.267V136.365H102.912V102.442Z" fill="#FFBE55"/>
</g>
<mask id="mask29_26_2548" style="mask-type:luminance" maskUnits="userSpaceOnUse" x="99" y="102" width="23" height="34">
<path d="M102.674 134.972L99.5337 133.458L113.815 102.442L121.815 106.319L109.667 132.609C108.363 135.517 105.519 136.365 102.674 134.972Z" fill="white"/>
</mask>
<g mask="url(#mask29_26_2548)">
<path d="M102.615 102.442H102.97V136.365H102.615V102.442Z" fill="#FFBE55"/>
</g>
<mask id="mask30_26_2548" style="mask-type:luminance" maskUnits="userSpaceOnUse" x="99" y="102" width="23" height="34">
<path d="M102.674 134.972L99.5337 133.458L113.815 102.442L121.815 106.319L109.667 132.609C108.363 135.517 105.519 136.365 102.674 134.972Z" fill="white"/>
</mask>
<g mask="url(#mask30_26_2548)">
<path d="M102.259 102.442H102.615V136.365H102.259V102.442ZM101.904 102.442H102.259V136.365H101.904V102.442ZM101.548 102.442H101.904V136.365H101.548V102.442Z" fill="#FFBE55"/>
</g>
<mask id="mask31_26_2548" style="mask-type:luminance" maskUnits="userSpaceOnUse" x="99" y="102" width="23" height="34">
<path d="M102.674 134.972L99.5337 133.458L113.815 102.442L121.815 106.319L109.667 132.609C108.363 135.517 105.519 136.365 102.674 134.972Z" fill="white"/>
</mask>
<g mask="url(#mask31_26_2548)">
<path d="M101.193 102.442H101.549V136.365H101.193V102.442Z" fill="#FFBE55"/>
</g>
<mask id="mask32_26_2548" style="mask-type:luminance" maskUnits="userSpaceOnUse" x="99" y="102" width="23" height="34">
<path d="M102.674 134.972L99.5337 133.458L113.815 102.442L121.815 106.319L109.667 132.609C108.363 135.517 105.519 136.365 102.674 134.972Z" fill="white"/>
</mask>
<g mask="url(#mask32_26_2548)">
<path d="M100.897 102.442H101.252V136.365H100.897V102.442ZM100.541 102.442H100.897V136.365H100.541V102.442Z" fill="#FFBE55"/>
</g>
<mask id="mask33_26_2548" style="mask-type:luminance" maskUnits="userSpaceOnUse" x="99" y="102" width="23" height="34">
<path d="M102.674 134.972L99.5337 133.458L113.815 102.442L121.815 106.319L109.667 132.609C108.363 135.517 105.519 136.365 102.674 134.972Z" fill="white"/>
</mask>
<g mask="url(#mask33_26_2548)">
<path d="M100.185 102.442H100.541V136.365H100.185V102.442ZM99.8297 102.442H100.185V136.365H99.8297V102.442ZM99.4741 102.442H99.8297V136.365H99.4741V102.442Z" fill="#FFBE55"/>
</g>
<path d="M132.363 109.227L100.838 103.229L105.934 76.7568L137.223 84.0867L132.363 109.227Z" fill="#FFBE55"/>
<mask id="mask34_26_2548" style="mask-type:luminance" maskUnits="userSpaceOnUse" x="100" y="76" width="38" height="34">
<path d="M132.363 109.227L100.838 103.229L105.934 76.7568L137.223 84.0867L132.363 109.227Z" fill="white"/>
</mask>
<g mask="url(#mask34_26_2548)">
<path d="M136.69 76.7568H137.223V109.227H136.69V76.7568ZM136.097 76.7568H136.63V109.227H136.097V76.7568Z" fill="#FFBE55"/>
</g>
<mask id="mask35_26_2548" style="mask-type:luminance" maskUnits="userSpaceOnUse" x="100" y="76" width="38" height="34">
<path d="M132.363 109.227L100.838 103.229L105.934 76.7568L137.223 84.0867L132.363 109.227Z" fill="white"/>
</mask>
<g mask="url(#mask35_26_2548)">
<path d="M135.564 76.7568H136.156V109.227H135.564V76.7568ZM134.971 76.7568H135.505V109.227H134.971V76.7568ZM134.438 76.7568H134.971V109.227H134.438V76.7568ZM133.905 76.7568H134.438V109.227H133.905V76.7568ZM133.312 76.7568H133.845V109.227H133.312V76.7568ZM132.779 76.7568H133.312V109.227H132.779V76.7568ZM132.186 76.7568H132.719V109.227H132.186V76.7568ZM131.653 76.7568H132.186V109.227H131.653V76.7568ZM131.06 76.7568H131.653V109.227H131.06V76.7568ZM130.527 76.7568H131.06V109.227H130.527V76.7568ZM129.934 76.7568H130.468V109.227H129.934V76.7568ZM129.401 76.7568H129.934V109.227H129.401V76.7568ZM128.808 76.7568H129.342V109.227H128.808V76.7568ZM128.275 76.7568H128.808V109.227H128.275V76.7568ZM127.742 76.7568H128.275V109.227H127.742V76.7568ZM127.149 76.7568H127.682V109.227H127.149V76.7568Z" fill="#FFBE55"/>
</g>
<mask id="mask36_26_2548" style="mask-type:luminance" maskUnits="userSpaceOnUse" x="100" y="76" width="38" height="34">
<path d="M132.363 109.227L100.838 103.229L105.934 76.7568L137.223 84.0867L132.363 109.227Z" fill="white"/>
</mask>
<g mask="url(#mask36_26_2548)">
<path d="M126.616 76.7568H127.208V109.227H126.616V76.7568ZM126.023 76.7568H126.556V109.227H126.023V76.7568ZM125.49 76.7568H126.023V109.227H125.49V76.7568ZM124.897 76.7568H125.43V109.227H124.897V76.7568ZM124.364 76.7568H124.897V109.227H124.364V76.7568ZM123.771 76.7568H124.304V109.227H123.771V76.7568ZM123.238 76.7568H123.771V109.227H123.238V76.7568ZM122.704 76.7568H123.238V109.227H122.704V76.7568ZM122.112 76.7568H122.645V109.227H122.112V76.7568ZM121.579 76.7568H122.112V109.227H121.579V76.7568ZM120.986 76.7568H121.519V109.227H120.986V76.7568Z" fill="#FFBE55"/>
</g>
<mask id="mask37_26_2548" style="mask-type:luminance" maskUnits="userSpaceOnUse" x="100" y="76" width="38" height="34">
<path d="M132.363 109.227L100.838 103.229L105.934 76.7568L137.223 84.0867L132.363 109.227Z" fill="white"/>
</mask>
<g mask="url(#mask37_26_2548)">
<path d="M120.453 76.7568H121.045V109.227H120.453V76.7568ZM119.86 76.7568H120.394V109.227H119.86V76.7568ZM119.327 76.7568H119.86V109.227H119.327V76.7568ZM118.734 76.7568H119.268V109.227H118.734V76.7568ZM118.201 76.7568H118.734V109.227H118.201V76.7568ZM117.608 76.7568H118.142V109.227H117.608V76.7568ZM117.075 76.7568H117.608V109.227H117.075V76.7568ZM116.542 76.7568H117.075V109.227H116.542V76.7568ZM115.949 76.7568H116.542V109.227H115.949V76.7568ZM115.416 76.7568H115.949V109.227H115.416V76.7568ZM114.823 76.7568H115.357V109.227H114.823V76.7568ZM114.29 76.7568H114.823V109.227H114.29V76.7568ZM113.697 76.7568H114.231V109.227H113.697V76.7568ZM113.164 76.7568H113.697V109.227H113.164V76.7568ZM112.571 76.7568H113.105V109.227H112.571V76.7568ZM112.038 76.7568H112.571V109.227H112.038V76.7568ZM111.445 76.7568H111.979V109.227H111.445V76.7568Z" fill="#FFBE55"/>
</g>
<mask id="mask38_26_2548" style="mask-type:luminance" maskUnits="userSpaceOnUse" x="100" y="76" width="38" height="34">
<path d="M132.363 109.227L100.838 103.229L105.934 76.7568L137.223 84.0867L132.363 109.227Z" fill="white"/>
</mask>
<g mask="url(#mask38_26_2548)">
<path d="M110.912 76.7568H111.504V109.227H110.912V76.7568ZM110.378 76.7568H110.912V109.227H110.378V76.7568ZM109.786 76.7568H110.319V109.227H109.786V76.7568ZM109.252 76.7568H109.786V109.227H109.252V76.7568ZM108.66 76.7568H109.193V109.227H108.66V76.7568ZM108.126 76.7568H108.66V109.227H108.126V76.7568ZM107.534 76.7568H108.067V109.227H107.534V76.7568ZM107 76.7568H107.534V109.227H107V76.7568ZM106.408 76.7568H107V109.227H106.408V76.7568ZM105.875 76.7568H106.408V109.227H105.875V76.7568ZM105.282 76.7568H105.815V109.227H105.282V76.7568ZM104.749 76.7568H105.282V109.227H104.749V76.7568ZM104.215 76.7568H104.749V109.227H104.215V76.7568ZM103.623 76.7568H104.156V109.227H103.623V76.7568ZM103.089 76.7568H103.623V109.227H103.089V76.7568ZM102.497 76.7568H103.03V109.227H102.497V76.7568ZM101.963 76.7568H102.497V109.227H101.963V76.7568ZM101.371 76.7568H101.963V109.227H101.371V76.7568ZM100.838 76.7568H101.371V109.227H100.838V76.7568Z" fill="#FFBE55"/>
</g>
<path d="M87.6818 287.265C109.773 287.265 127.682 274.03 127.682 257.703C127.682 241.377 109.773 228.141 87.6818 228.141C65.5904 228.141 47.6818 241.377 47.6818 257.703C47.6818 274.03 65.5904 287.265 87.6818 287.265Z" fill="#2A94F4"/>
<path d="M70.9111 306.287C89.8606 306.287 105.222 294.95 105.222 280.965C105.222 266.981 89.8606 255.644 70.9111 255.644C51.9616 255.644 36.6 266.981 36.6 280.965C36.6 294.95 51.9616 306.287 70.9111 306.287Z" fill="#FFBE55"/>
<path d="M71.7411 302.955H83.3559V318.584L71.7411 302.955Z" fill="#FFBE55"/>
<path d="M91.3558 235.047H104.926V216.813L91.3558 235.047Z" fill="#2A94F4"/>
<path d="M37.1336 66.3979C36.4225 67.1248 35.2965 67.1248 34.6447 66.3979L19.1188 50.5264C18.4076 49.7995 18.4076 48.6485 19.1188 47.9822C19.8299 47.2552 20.9558 47.2552 21.6076 47.9822L37.1336 63.8536C37.8447 64.52 37.8447 65.6709 37.1336 66.3979ZM29.8447 91.8406C29.9632 92.8099 29.2521 93.7185 28.2447 93.8397L6.43727 96.2022C5.48912 96.3234 4.60023 95.5965 4.48171 94.5666C4.36319 93.5974 5.07431 92.6887 6.08172 92.5676L27.8891 90.205C28.8373 90.1444 29.7262 90.8714 29.8447 91.8406ZM26.2299 77.5442C25.9336 78.5135 24.8669 78.9981 23.978 78.6346L3.23727 71.2441C2.28912 70.9412 1.81505 69.8508 2.1706 68.9422C2.4669 67.9729 3.53357 67.4883 4.42245 67.8518L25.1039 75.2423C26.0521 75.5452 26.5262 76.575 26.2299 77.5442Z" fill="#FFBE55"/>
</svg>
