<svg width="49" height="48" viewBox="0 0 49 48" fill="none" xmlns="http://www.w3.org/2000/svg">
<rect x="0.5" width="48" height="48" rx="24" fill="#3363AD"/>
<g clip-path="url(#clip0_32_3671)">
<path d="M35.6843 26.3129H35.651C35.4232 26.3039 35.2083 26.2049 35.0534 26.0376C34.8986 25.8702 34.8165 25.6483 34.8252 25.4205L35.1585 16.9999L26.7379 17.3332C26.2677 17.3443 25.864 16.9814 25.8455 16.5074C25.827 16.0334 26.1973 15.6335 26.6713 15.615L36.0213 15.2447C36.2583 15.2373 36.4916 15.3262 36.6619 15.4965C36.8322 15.6668 36.9211 15.9001 36.9137 16.1371L36.5434 25.4871C36.5344 25.709 36.44 25.9189 36.2799 26.0728C36.1198 26.2266 35.9064 26.3127 35.6843 26.3129Z" fill="white"/>
<path d="M14.0737 31.6268C13.8738 31.6268 13.6775 31.5602 13.5146 31.4195C13.1554 31.1121 13.1146 30.5678 13.422 30.2086L19.0987 23.5987C19.2542 23.4172 19.4838 23.3061 19.7245 23.2987C19.9615 23.2876 20.1985 23.3839 20.3651 23.5579L23.8349 27.1128L35.4476 15.5002C35.7845 15.1632 36.3252 15.1632 36.6621 15.5002C36.9991 15.8371 36.9991 16.3778 36.6621 16.7148L24.4348 28.9421C24.2755 29.1014 24.0571 29.1939 23.8275 29.1939H23.8238C23.5942 29.1939 23.3757 29.0977 23.2165 28.9347L19.7949 25.428L14.7254 31.3269C14.5551 31.5231 14.3144 31.6268 14.0737 31.6268Z" fill="white"/>
</g>
<defs>
<clipPath id="clip0_32_3671">
<rect width="23.6991" height="23.6991" fill="white" transform="translate(13.2147 11.5862)"/>
</clipPath>
</defs>
</svg>
