<svg width="48" height="48" viewBox="0 0 48 48" fill="none" xmlns="http://www.w3.org/2000/svg">
<rect width="48" height="48" rx="24" fill="#3363AD"/>
<g clip-path="url(#clip0_32_3998)">
<path d="M22.6247 33.9451C21.0514 33.9446 19.5006 33.5709 18.0998 32.8545C16.6991 32.1382 15.4882 31.0998 14.5668 29.8246C13.6453 28.5493 13.0396 27.0737 12.7993 25.5188C12.559 23.964 12.691 22.3743 13.1845 20.8804C13.678 19.3865 14.5189 18.031 15.6381 16.9253C16.7573 15.8195 18.1229 14.9951 19.6227 14.5197C21.1224 14.0443 22.7136 13.9315 24.2654 14.1906C25.8172 14.4496 27.2854 15.0732 28.5494 16.01C28.7186 16.1474 28.8282 16.3449 28.8554 16.5611C28.8827 16.7774 28.8254 16.9959 28.6956 17.1709C28.5657 17.346 28.3734 17.4643 28.1585 17.5011C27.9437 17.5379 27.7229 17.4904 27.5422 17.3684C26.0503 16.2608 24.2284 15.6888 22.3711 15.7449C20.5138 15.801 18.7297 16.482 17.3074 17.6777C15.8851 18.8734 14.9077 20.5139 14.5332 22.3339C14.1588 24.1539 14.4092 26.047 15.244 27.7071C16.0788 29.3672 17.4492 30.6971 19.1335 31.4818C20.8178 32.2666 22.7175 32.4602 24.5255 32.0315C26.3335 31.6028 27.9441 30.5767 29.0967 29.1192C30.2492 27.6617 30.8765 25.8581 30.877 24C30.8758 23.5648 30.8404 23.1304 30.7712 22.7007C30.754 22.5896 30.7588 22.4761 30.7854 22.3668C30.8121 22.2576 30.8599 22.1546 30.9264 22.0638C30.9928 21.973 31.0764 21.8962 31.1725 21.8378C31.2686 21.7793 31.3753 21.7404 31.4864 21.7231C31.5976 21.7059 31.711 21.7108 31.8203 21.7374C31.9296 21.764 32.0326 21.8119 32.1233 21.8783C32.2141 21.9447 32.2909 22.0283 32.3494 22.1244C32.4078 22.2205 32.4468 22.3272 32.464 22.4384C32.5396 22.9554 32.575 23.4775 32.5698 24C32.5676 26.6369 31.5191 29.1652 29.6545 31.0298C27.7899 32.8943 25.2616 33.9429 22.6247 33.9451Z" fill="white"/>
<path d="M23.6826 27.1739C23.4585 27.1729 23.2439 27.0831 23.0859 26.9242L19.0655 22.9038C18.9269 22.7419 18.8544 22.5336 18.8626 22.3206C18.8709 22.1076 18.9592 21.9055 19.1099 21.7548C19.2606 21.604 19.4627 21.5157 19.6757 21.5075C19.8887 21.4993 20.097 21.5717 20.2589 21.7104L23.6826 25.1298L33.8774 14.9392C34.0394 14.8006 34.2476 14.7281 34.4606 14.7363C34.6737 14.7446 34.8757 14.8329 35.0265 14.9836C35.1772 15.1344 35.2655 15.3364 35.2737 15.5494C35.282 15.7625 35.2095 15.9707 35.0709 16.1327L24.2793 26.9242C24.1213 27.0831 23.9067 27.1729 23.6826 27.1739Z" fill="white"/>
</g>
<defs>
<clipPath id="clip0_32_3998">
<rect width="27.0846" height="27.0846" fill="white" transform="translate(10.4577 10.4576)"/>
</clipPath>
</defs>
</svg>
