<svg width="49" height="48" viewBox="0 0 49 48" fill="none" xmlns="http://www.w3.org/2000/svg">
<rect x="0.5" width="48" height="48" rx="24" fill="#3363AD"/>
<g clip-path="url(#clip0_32_3834)">
<g clip-path="url(#clip1_32_3834)">
<path d="M33.6319 10.6299C33.5966 10.5768 33.5487 10.5334 33.4925 10.5033C33.4364 10.4733 33.3736 10.4576 33.3099 10.4576H29.0209C28.8646 10.4576 28.7233 10.5521 28.6637 10.6964L24.5845 20.5503L20.5056 10.6964C20.4762 10.6257 20.4265 10.5653 20.3628 10.5228C20.2991 10.4803 20.2242 10.4576 20.1476 10.4576H15.859C15.7953 10.4575 15.7325 10.4732 15.6762 10.5033C15.62 10.5333 15.5721 10.5768 15.5367 10.6298C15.5013 10.6829 15.4796 10.7439 15.4736 10.8074C15.4675 10.8708 15.4772 10.9348 15.5018 10.9936L20.0888 21.9849C19.7576 22.243 19.5024 22.5861 19.3504 22.9775C19.2717 23.1809 19.151 23.3655 18.9964 23.5193C18.8417 23.6731 18.6565 23.7927 18.4526 23.8703C17.9565 24.0637 17.5413 24.4207 17.2757 24.8822C17.0101 25.3437 16.9101 25.8821 16.9921 26.4082C17.0262 26.6254 17.0139 26.8474 16.9562 27.0596C16.8986 27.2718 16.7967 27.4695 16.6574 27.6396C15.9724 28.4871 15.9724 29.7177 16.6663 30.5757C16.8032 30.745 16.9029 30.9412 16.959 31.1515C17.0152 31.3619 17.0264 31.5817 16.9921 31.7966C16.8195 32.8748 17.4341 33.9417 18.4596 34.3368C18.663 34.4154 18.8476 34.5359 19.0015 34.6905C19.1554 34.845 19.275 35.0301 19.3528 35.2339C19.7456 36.2528 20.8117 36.8701 21.8903 36.6948C22.1076 36.6607 22.3296 36.6729 22.5419 36.7306C22.7542 36.7882 22.9519 36.8901 23.122 37.0295C23.5352 37.3626 24.0503 37.5437 24.581 37.5423C25.1034 37.5423 25.6274 37.3689 26.0581 37.0206C26.2276 36.8842 26.4238 36.7847 26.634 36.7286C26.8442 36.6725 27.0638 36.661 27.2787 36.6948C28.3584 36.8701 29.4238 36.2528 29.8185 35.2269C29.8973 35.0235 30.018 34.8389 30.1726 34.685C30.3273 34.5312 30.5125 34.4115 30.7163 34.3337C31.2124 34.1405 31.6276 33.7837 31.8932 33.3223C32.1588 32.8609 32.2589 32.3226 32.1768 31.7966C32.1426 31.5793 32.1548 31.3572 32.2125 31.1449C32.2702 30.9327 32.3721 30.735 32.5116 30.5648C33.1965 29.7173 33.1965 28.4867 32.5027 27.6288C32.3659 27.4595 32.2663 27.2633 32.2101 27.0531C32.154 26.8428 32.1427 26.6231 32.1768 26.4082C32.349 25.3304 31.7349 24.2631 30.7094 23.8676C30.506 23.7889 30.3214 23.6684 30.1675 23.5139C30.0137 23.3594 29.894 23.1743 29.8162 22.9706C29.6647 22.5812 29.4104 22.2401 29.0805 21.9837L33.6671 10.9932C33.6916 10.9344 33.7012 10.8705 33.6951 10.8071C33.6889 10.7437 33.6672 10.6828 33.6319 10.6299ZM16.4399 11.2316H19.8891L23.8442 20.7852C23.5778 20.873 23.3294 21.008 23.1108 21.1838C22.9416 21.3208 22.7455 21.4206 22.5352 21.4768C22.325 21.533 22.1052 21.5443 21.8903 21.5101C21.5148 21.4508 21.1305 21.4858 20.7719 21.6118L16.4399 11.2316ZM30.4381 24.5928C30.7691 24.7217 31.0462 24.9597 31.2235 25.2675C31.4008 25.5754 31.4676 25.9345 31.4129 26.2855C31.3617 26.6101 31.3794 26.9418 31.465 27.259C31.5507 27.5762 31.7022 27.8718 31.9098 28.1264C32.3672 28.6918 32.3672 29.5126 31.9009 30.0892C31.6958 30.343 31.5464 30.637 31.4624 30.9522C31.3783 31.2674 31.3614 31.5968 31.4129 31.9189C31.4673 32.2711 31.3995 32.6312 31.2209 32.9396C31.0423 33.2479 30.7636 33.4859 30.4311 33.6139C30.1267 33.7316 29.8504 33.9119 29.62 34.1431C29.3896 34.3743 29.2103 34.6512 29.0937 34.956C28.9647 35.2869 28.7266 35.5638 28.4188 35.741C28.111 35.9182 27.7519 35.985 27.401 35.9305C27.0764 35.8788 26.7446 35.8963 26.4273 35.982C26.11 36.0678 25.8145 36.2196 25.5601 36.4277C24.9951 36.8852 24.1747 36.8859 23.598 36.4188C23.3442 36.2137 23.0501 36.0642 22.7347 35.9801C22.4194 35.8959 22.0899 35.879 21.7676 35.9305C21.0497 36.0458 20.3369 35.636 20.0726 34.9487C19.9548 34.6444 19.7746 34.3681 19.5435 34.1377C19.3124 33.9074 19.0356 33.728 18.7309 33.6112C18.3999 33.4825 18.1228 33.2445 17.9455 32.9367C17.7682 32.629 17.7014 32.2699 17.756 31.9189C17.8074 31.5944 17.7898 31.2627 17.7041 30.9454C17.6185 30.6282 17.4669 30.3326 17.2591 30.078C16.8017 29.513 16.8017 28.6918 17.268 28.1156C17.473 27.8618 17.6224 27.5677 17.7065 27.2524C17.7906 26.9371 17.8074 26.6077 17.756 26.2855C17.7016 25.9334 17.7693 25.5732 17.9479 25.2648C18.1265 24.9565 18.4053 24.7185 18.7378 24.5905C19.0422 24.4728 19.3185 24.2926 19.5488 24.0615C19.7792 23.8304 19.9585 23.5535 20.0753 23.2488C20.1952 22.9428 20.4099 22.6831 20.6879 22.5077C20.6995 22.5039 20.7119 22.5054 20.7235 22.5004C20.7657 22.4818 20.8043 22.4557 20.8373 22.4234C21.1244 22.2779 21.4497 22.2257 21.768 22.274C22.0925 22.3254 22.4243 22.3077 22.7415 22.222C23.0588 22.1363 23.3543 21.9846 23.6089 21.7767C24.1739 21.3201 24.9947 21.3193 25.5709 21.7856C25.8247 21.9909 26.1188 22.1405 26.4342 22.2246C26.7495 22.3088 27.0791 22.3256 27.4014 22.274C27.7196 22.2258 28.045 22.2782 28.3321 22.4237C28.365 22.4547 28.4017 22.4818 28.4455 22.5004C28.4571 22.5054 28.4691 22.5042 28.4811 22.5073C28.7606 22.6848 28.9762 22.9468 29.0964 23.2554C29.2141 23.5597 29.3943 23.836 29.6254 24.0664C29.8565 24.2968 30.1334 24.4761 30.4381 24.5928ZM28.3971 21.6115C28.0384 21.4857 27.6541 21.4508 27.2787 21.5101C27.0614 21.5442 26.8393 21.532 26.627 21.4742C26.4147 21.4164 26.217 21.3145 26.0469 21.1749C25.832 21.0019 25.5877 20.8691 25.3256 20.7829L29.2798 11.2316H32.7291L28.3971 21.6115Z" fill="white"/>
<path d="M24.5845 23.5878C21.5439 23.5878 19.0699 26.0614 19.0699 29.1024C19.0699 32.1433 21.5439 34.617 24.5845 34.617C27.6251 34.617 30.0991 32.1429 30.0991 29.1024C30.0991 26.0618 27.6251 23.5878 24.5845 23.5878ZM24.5845 33.843C21.9704 33.843 19.8439 31.7165 19.8439 29.1024C19.8439 26.4883 21.9704 24.3617 24.5845 24.3617C27.1986 24.3617 29.3251 26.4883 29.3251 29.1024C29.3251 31.7165 27.1986 33.843 24.5845 33.843Z" fill="white"/>
<path d="M23.9061 27.3413C23.6042 27.5766 23.3244 27.7361 23.0667 27.8208V28.7163C23.5413 28.5634 23.9765 28.308 24.3415 27.9683V31.6872H25.3283V26.5178H24.5276C24.4154 26.8313 24.2079 27.106 23.9061 27.3413Z" fill="white"/>
</g>
</g>
<defs>
<clipPath id="clip0_32_3834">
<rect width="27.0846" height="27.0846" fill="white" transform="translate(10.9577 10.4576)"/>
</clipPath>
<clipPath id="clip1_32_3834">
<rect width="27.0846" height="27.0846" fill="white" transform="translate(10.9577 10.4576)"/>
</clipPath>
</defs>
</svg>
